<mxfile host="Electron" agent="Mozilla/5.0 (Windows NT 10.0; Win64; x64) AppleWebKit/537.36 (KHTML, like Gecko) draw.io/24.7.5 Chrome/126.0.6478.183 Electron/31.3.0 Safari/537.36" version="24.7.5">
  <diagram name="第 1 页" id="hRxLMndlIpu360IFiSi-">
    <mxGraphModel dx="1770" dy="705" grid="1" gridSize="10" guides="1" tooltips="1" connect="1" arrows="1" fold="1" page="1" pageScale="1" pageWidth="827" pageHeight="1169" math="0" shadow="0">
      <root>
        <mxCell id="0" />
        <mxCell id="1" parent="0" />
        <mxCell id="lDm2rbJjE9QmFnvDv3AJ-1" value="GPU B Tree" style="rounded=0;whiteSpace=wrap;html=1;" parent="1" vertex="1">
          <mxGeometry x="280" y="420" width="120" height="30" as="geometry" />
        </mxCell>
        <mxCell id="BWgya7E0C2vDiB3n6-wg-1" value="存储" style="rounded=0;whiteSpace=wrap;html=1;" vertex="1" parent="1">
          <mxGeometry x="440" y="405" width="120" height="60" as="geometry" />
        </mxCell>
        <mxCell id="BWgya7E0C2vDiB3n6-wg-3" value="GPMA" style="rounded=0;whiteSpace=wrap;html=1;" vertex="1" parent="1">
          <mxGeometry x="150" y="420" width="120" height="30" as="geometry" />
        </mxCell>
        <mxCell id="BWgya7E0C2vDiB3n6-wg-4" value="LPMA" style="rounded=0;whiteSpace=wrap;html=1;" vertex="1" parent="1">
          <mxGeometry x="10" y="420" width="120" height="30" as="geometry" />
        </mxCell>
        <mxCell id="BWgya7E0C2vDiB3n6-wg-5" value="KV" style="rounded=0;whiteSpace=wrap;html=1;" vertex="1" parent="1">
          <mxGeometry x="-130" y="420" width="120" height="30" as="geometry" />
        </mxCell>
        <mxCell id="BWgya7E0C2vDiB3n6-wg-6" value="形式" style="rounded=0;whiteSpace=wrap;html=1;" vertex="1" parent="1">
          <mxGeometry x="440" y="320" width="120" height="60" as="geometry" />
        </mxCell>
        <mxCell id="BWgya7E0C2vDiB3n6-wg-7" value="CSR" style="rounded=0;whiteSpace=wrap;html=1;" vertex="1" parent="1">
          <mxGeometry x="280" y="335" width="120" height="30" as="geometry" />
        </mxCell>
        <mxCell id="BWgya7E0C2vDiB3n6-wg-9" value="GPM" style="rounded=0;whiteSpace=wrap;html=1;" vertex="1" parent="1">
          <mxGeometry x="440" y="240" width="120" height="60" as="geometry" />
        </mxCell>
        <mxCell id="BWgya7E0C2vDiB3n6-wg-10" value="Symmtry Breaking" style="rounded=0;whiteSpace=wrap;html=1;" vertex="1" parent="1">
          <mxGeometry x="280" y="260" width="120" height="30" as="geometry" />
        </mxCell>
        <mxCell id="BWgya7E0C2vDiB3n6-wg-11" value="Hybrid BFS DFS" style="rounded=0;whiteSpace=wrap;html=1;" vertex="1" parent="1">
          <mxGeometry x="150" y="260" width="120" height="30" as="geometry" />
        </mxCell>
        <mxCell id="BWgya7E0C2vDiB3n6-wg-12" value="DAG" style="rounded=0;whiteSpace=wrap;html=1;" vertex="1" parent="1">
          <mxGeometry x="10" y="260" width="120" height="30" as="geometry" />
        </mxCell>
      </root>
    </mxGraphModel>
  </diagram>
</mxfile>
